<svg width="60" height="60" viewBox="0 0 60 60" fill="none" xmlns="http://www.w3.org/2000/svg">
<path d="M27.75 10.626C24.1437 11.0349 20.7232 12.4428 17.874 14.691L20.34 17.16C20.7374 17.5865 20.9538 18.1507 20.9435 18.7336C20.9332 19.3165 20.6971 19.8726 20.2849 20.2849C19.8726 20.6971 19.3165 20.9332 18.7336 20.9435C18.1507 20.9538 17.5865 20.7374 17.16 20.34L14.682 17.865C12.5759 20.5067 11.2056 23.6581 10.71 27H15.75C16.3467 27 16.919 27.2371 17.341 27.659C17.7629 28.081 18 28.6533 18 29.25C18 29.8467 17.7629 30.419 17.341 30.841C16.919 31.2629 16.3467 31.5 15.75 31.5H10.575C11.0421 36.3147 13.2426 40.7957 16.767 44.109C17.1921 44.5196 17.4385 45.0809 17.4531 45.6718C17.4677 46.2626 17.2493 46.8354 16.845 47.2665C16.4407 47.6976 15.8831 47.9523 15.2925 47.9756C14.702 47.9989 14.126 47.7889 13.689 47.391C9.069 43.062 6 36.678 6 29.829C6 16.653 16.761 6 30 6C43.239 6 54 16.65 54 29.829C53.9941 33.1172 53.3192 36.3699 52.0164 39.3891C50.7137 42.4082 48.8103 45.1307 46.422 47.391C45.985 47.7889 45.409 47.9989 44.8185 47.9756C44.2279 47.9523 43.6703 47.6976 43.266 47.2665C42.8617 46.8354 42.6433 46.2626 42.6579 45.6718C42.6725 45.0809 42.9189 44.5196 43.344 44.109C46.8439 40.7901 49.0081 36.305 49.428 31.5H44.25C43.6533 31.5 43.081 31.2629 42.659 30.841C42.2371 30.419 42 29.8467 42 29.25C42 28.6533 42.2371 28.081 42.659 27.659C43.081 27.2371 43.6533 27 44.25 27H49.29C48.018 18.402 41.031 11.625 32.25 10.626V14.25C32.25 14.8467 32.0129 15.419 31.591 15.841C31.169 16.2629 30.5967 16.5 30 16.5C29.4033 16.5 28.831 16.2629 28.409 15.841C27.9871 15.419 27.75 14.8467 27.75 14.25V10.626ZM40.347 17.421C40.6196 17.2045 40.9591 17.0895 41.3071 17.0959C41.6552 17.1022 41.9902 17.2294 42.2548 17.4556C42.5194 17.6819 42.697 17.9932 42.7573 18.3361C42.8175 18.6789 42.7566 19.0321 42.585 19.335L42.255 19.923C41.0486 22.0533 39.8346 24.1793 38.613 26.301C37.6364 27.9988 36.6464 29.6889 35.643 31.371C35.267 32.0038 34.883 32.6319 34.491 33.255C34.191 33.726 33.897 34.173 33.681 34.425C32.906 35.3328 31.8022 35.8956 30.6123 35.9896C29.4223 36.0835 28.2438 35.701 27.336 34.926C26.4282 34.151 25.8654 33.0472 25.7714 31.8573C25.6775 30.6673 26.06 29.4888 26.835 28.581C27.051 28.329 27.444 27.966 27.864 27.597C28.314 27.198 28.893 26.709 29.544 26.16C30.852 25.068 32.49 23.73 34.086 22.44C35.9896 20.9001 37.8997 19.3681 39.816 17.844L40.347 17.421Z" fill="black"/>
</svg>
