<svg width="32" height="32" viewBox="0 0 32 32" fill="none" xmlns="http://www.w3.org/2000/svg">
<path d="M5.19068e-06 3.08287C0.000271114 2.52331 0.152755 1.97436 0.441125 1.49483C0.729494 1.01529 1.14288 0.623242 1.63701 0.360667C2.13114 0.0980928 2.68739 -0.0251122 3.24619 0.00425C3.80498 0.0336122 4.34525 0.214435 4.80914 0.52735C5.27303 0.840264 5.64306 1.27348 5.87958 1.7806C6.11611 2.28771 6.21022 2.84962 6.15184 3.40612C6.09346 3.96263 5.88479 4.49277 5.54818 4.93977C5.21156 5.38676 4.75969 5.73375 4.24096 5.94359V14.2636H14.2651V5.94359C13.6015 5.67517 13.052 5.18433 12.7106 4.55519C12.3693 3.92605 12.2574 3.19777 12.3941 2.49517C12.5309 1.79258 12.9077 1.15941 13.4601 0.704179C14.0124 0.248948 14.7059 7.02716e-07 15.4217 7.02716e-07C16.1375 7.02716e-07 16.8309 0.248948 17.3833 0.704179C17.9357 1.15941 18.3125 1.79258 18.4492 2.49517C18.5859 3.19777 18.474 3.92605 18.1327 4.55519C17.7914 5.18433 17.2418 5.67517 16.5783 5.94359V14.2636H21.5903C23.077 14.2636 24.0763 14.2605 24.8212 14.1618C25.5321 14.0646 25.8375 13.8996 26.038 13.6991C26.2384 13.4987 26.4035 13.1933 26.5006 12.4808C26.5993 11.7375 26.6024 10.7382 26.6024 9.25154V5.94359C25.9388 5.67517 25.3893 5.18433 25.048 4.55519C24.7066 3.92605 24.5947 3.19777 24.7315 2.49517C24.8682 1.79258 25.245 1.15941 25.7974 0.704179C26.3497 0.248948 27.0432 7.02716e-07 27.759 7.02716e-07C28.4748 7.02716e-07 29.1683 0.248948 29.7206 0.704179C30.273 1.15941 30.6498 1.79258 30.7866 2.49517C30.9233 3.19777 30.8114 3.92605 30.4701 4.55519C30.1287 5.18433 29.5792 5.67517 28.9156 5.94359V9.33173C28.9156 10.7166 28.9156 11.8732 28.7923 12.7893C28.6627 13.7578 28.3759 14.6322 27.6727 15.3338C26.971 16.0371 26.0966 16.3239 25.1281 16.4535C24.212 16.5768 23.0569 16.5768 21.6705 16.5768H16.5783V24.8968C17.2418 25.1652 17.7914 25.6561 18.1327 26.2852C18.474 26.9144 18.5859 27.6426 18.4492 28.3452C18.3125 29.0478 17.9357 29.681 17.3833 30.1362C16.8309 30.5915 16.1375 30.8404 15.4217 30.8404C14.7059 30.8404 14.0124 30.5915 13.4601 30.1362C12.9077 29.681 12.5309 29.0478 12.3941 28.3452C12.2574 27.6426 12.3693 26.9144 12.7106 26.2852C13.052 25.6561 13.6015 25.1652 14.2651 24.8968V16.5768H4.24096V24.8968C4.90451 25.1652 5.45404 25.6561 5.79537 26.2852C6.13671 26.9144 6.24861 27.6426 6.11188 28.3452C5.97516 29.0478 5.59832 29.681 5.04596 30.1362C4.49361 30.5915 3.80011 30.8404 3.08434 30.8404C2.36856 30.8404 1.67507 30.5915 1.12271 30.1362C0.570356 29.681 0.193523 29.0478 0.056798 28.3452C-0.0799275 27.6426 0.0319671 26.9144 0.373305 26.2852C0.714644 25.6561 1.26417 25.1652 1.92771 24.8968V5.94359C1.35793 5.7131 0.870006 5.31763 0.526535 4.80792C0.183064 4.29821 -0.00028685 3.69751 5.19068e-06 3.08287Z" fill="black"/>
<path fill-rule="evenodd" clip-rule="evenodd" d="M23.5181 20.0468C23.5181 19.74 23.6399 19.4458 23.8568 19.2289C24.0737 19.012 24.3679 18.8901 24.6747 18.8901H28.2001C30.3206 18.8901 32 20.639 32 22.7456C32.0028 23.5382 31.7614 24.3125 31.3086 24.9632C30.8558 25.6138 30.2136 26.1092 29.4693 26.382L31.8288 30.2374C31.9082 30.3669 31.9613 30.5108 31.9851 30.6608C32.0089 30.8109 32.0029 30.9641 31.9674 31.1118C31.932 31.2595 31.8678 31.3988 31.7785 31.5217C31.6892 31.6446 31.5766 31.7488 31.4471 31.8281C31.3176 31.9075 31.1737 31.9606 31.0237 31.9844C30.8737 32.0082 30.7204 32.0022 30.5727 31.9668C30.425 31.9313 30.2857 31.8671 30.1628 31.7779C30.0399 31.6886 29.9358 31.576 29.8564 31.4465L26.8908 26.601H25.8313V30.8419C25.8313 31.1487 25.7095 31.4429 25.4926 31.6598C25.2756 31.8767 24.9814 31.9986 24.6747 31.9986C24.3679 31.9986 24.0737 31.8767 23.8568 31.6598C23.6399 31.4429 23.5181 31.1487 23.5181 30.8419V20.0468ZM25.8313 24.2877H28.2001C28.9989 24.2877 29.6867 23.62 29.6867 22.7456C29.6867 21.8711 28.9989 21.2034 28.2001 21.2034H25.8313V24.2877Z" fill="black"/>
</svg>
